<svg xmlns="http://www.w3.org/2000/svg" x="0px" y="0px"
width="100" height="100"
viewBox="0 0 100 100"
style=" fill:#000000;"><ellipse cx="50" cy="54.5" fill="#fed5b3" rx="35" ry="32.5"></ellipse><path fill="#8cc78c" d="M83,43H17V20c0-2.761,2.239-5,5-5h56c2.761,0,5,2.239,5,5V43z"></path><path fill="#8cc78c" d="M79.384,41.5c-0.702,0-1.292,0.312-1.755,0.929c-1.542,2.053-1.497,6.977,0.117,12.543l0,0 C80.297,63.777,85.832,71.5,89.591,71.5c0.782,0,1.397-0.336,1.879-1.028c1.716-2.461,1.246-8.707-1.144-15.187 C87.525,47.684,82.616,41.5,79.384,41.5z"></path><path fill="#8cc78c" d="M20.634,39.5c-2.815,0-7.803,5.267-10.952,13.776c-2.449,6.618-2.89,12.913-1.073,15.308 C9.078,69.2,9.659,69.5,10.389,69.5c3.757,0,9.298-7.72,11.858-16.52c1.654-5.688,1.672-10.655,0.044-12.654 C21.838,39.771,21.296,39.5,20.634,39.5z"></path><path fill="#70b570" d="M78.5,46.5c0,0-9-3-28-3s-28,2-28,2l-1-18l57,1V46.5z"></path><path fill="#fff" d="M50,53.683C50,60.431,44.761,66.5,38.481,66.5c-6.088,0-9.897-5.751-8.79-12.18 c0.999-5.797,5.748-10.323,10.808-10.612C45.691,43.411,50,47.631,50,53.683z"></path><path fill="#fff" d="M50,53.696C50,60.438,55.239,66.5,61.519,66.5c6.088,0,9.897-5.744,8.79-12.167 c-0.999-5.791-5.748-10.312-10.808-10.601C54.309,43.436,50,47.651,50,53.696z"></path><g><path fill="#1f212b" d="M78.5,47c-0.053,0-0.106-0.008-0.158-0.025C78.253,46.945,69.177,44,50.5,44 c-18.729,0-27.802,1.968-27.892,1.988c-0.144,0.031-0.293-0.001-0.41-0.09s-0.189-0.224-0.197-0.371l-1-18 c-0.008-0.139,0.042-0.274,0.139-0.375s0.214-0.166,0.369-0.153l57,1C78.781,28.005,79,28.227,79,28.5v18 c0,0.161-0.077,0.312-0.208,0.405C78.706,46.968,78.604,47,78.5,47z M50.5,43c16.033,0,25.088,2.164,27.5,2.832V28.991 l-55.971-0.982l0.938,16.889C25.246,44.473,34.304,43,50.5,43z"></path><path fill="#1f212b" d="M89.591,72c-4.028,0-9.673-7.734-12.325-16.888c-0.983-3.393-1.413-6.652-1.21-9.179l0.996,0.08 c-0.193,2.409,0.224,5.542,1.175,8.821C80.678,63.294,86.095,71,89.591,71c0.615,0,1.082-0.259,1.47-0.814 c1.602-2.299,1.096-8.493-1.203-14.728C87.169,48.163,82.373,42,79.385,42c-0.233,0-0.452,0.05-0.67,0.154l-0.43-0.903 c0.351-0.166,0.721-0.25,1.1-0.25c3.482,0,8.495,6.199,11.41,14.112c2.481,6.729,2.918,13.016,1.086,15.646 C91.306,71.582,90.535,72,89.591,72z"></path><path fill="#1f212b" d="M10.389,70c-0.883,0-1.615-0.375-2.178-1.114c-1.945-2.564-1.542-8.908,1.003-15.784 C12.48,44.275,17.586,39,20.635,39c0.757,0,1.412,0.306,1.947,0.911l-0.748,0.663C21.487,40.182,21.105,40,20.635,40 c-2.308,0-7.235,4.674-10.483,13.449c-2.354,6.364-2.836,12.602-1.144,14.832C9.38,68.771,9.819,69,10.389,69 c3.495,0,8.918-7.702,11.378-16.159c0.794-2.729,1.22-5.334,1.232-7.536l1,0.006c-0.014,2.293-0.453,4.993-1.271,7.81 C20.065,62.27,14.415,70,10.389,70z"></path><path fill="#1f212b" d="M50.5,79c-2.621,0-4.211-1.04-4.277-1.084c-0.229-0.153-0.291-0.462-0.139-0.691 c0.151-0.23,0.462-0.293,0.692-0.142C46.79,77.092,48.199,78,50.5,78c2.298,0,3.711-0.908,3.725-0.917 c0.23-0.15,0.539-0.088,0.692,0.143c0.151,0.23,0.089,0.539-0.141,0.691C54.71,77.96,53.117,79,50.5,79z"></path><path fill="#1f212b" d="M50,88c-14.682,0-27.852-8.327-33.335-20.895C14.492,69.63,12.3,71,10.389,71 c-1.195,0-2.224-0.522-2.974-1.509c-2.178-2.87-1.84-9.438,0.861-16.735c1.963-5.306,4.762-9.816,7.724-12.468V20 c0-3.309,2.691-6,6-6h56c3.309,0,6,2.691,6,6v22.233c2.924,2.626,5.793,7.266,7.734,12.533c2.63,7.132,3.009,13.633,0.967,16.563 c-0.762,1.093-1.838,1.67-3.11,1.67c-2.091,0-4.485-1.618-6.84-4.594C76.903,80.365,64.24,88,50,88z M17.243,63.073l0.644,1.722 C22.625,77.479,35.53,86,50,86c14.05,0,26.464-7.828,31.627-19.943l0.71-1.665l1.031,1.487c3.046,4.387,6.251,6.372,7.692,4.307 c1.332-1.91,1.523-7.334-1.203-14.728l0,0c-1.877-5.093-4.751-9.692-7.501-12.003L82,43.154V20c0-2.206-1.794-4-4-4H22 c-2.206,0-4,1.794-4,4v21.208l-0.356,0.3c-2.794,2.351-5.595,6.814-7.492,11.941c-2.393,6.466-2.863,12.565-1.144,14.832 c1.375,1.812,4.304,0.088,7.14-3.732L17.243,63.073z"></path><path fill="#1f212b" d="M63.5,19h-41c-0.276,0-0.5-0.224-0.5-0.5s0.224-0.5,0.5-0.5h41c0.276,0,0.5,0.224,0.5,0.5 S63.776,19,63.5,19z"></path><path fill="#1f212b" d="M73.5,19h-4c-0.276,0-0.5-0.224-0.5-0.5s0.224-0.5,0.5-0.5h4c0.276,0,0.5,0.224,0.5,0.5 S73.776,19,73.5,19z"></path><path fill="#1f212b" d="M77.5,19h-1c-0.276,0-0.5-0.224-0.5-0.5s0.224-0.5,0.5-0.5h1c0.276,0,0.5,0.224,0.5,0.5 S77.776,19,77.5,19z"></path><path fill="#1f212b" d="M38.48,67c-2.755,0-5.234-1.142-6.982-3.216c-2.081-2.47-2.919-5.951-2.3-9.549 c1.029-5.978,5.875-10.718,11.272-11.026c2.532-0.144,4.954,0.734,6.799,2.477c2.083,1.967,3.23,4.808,3.23,7.998 C50.5,60.777,44.884,67,38.48,67z M41.009,44.193c-0.16,0-0.32,0.004-0.481,0.014c-4.863,0.278-9.406,4.757-10.343,10.198 c-0.57,3.307,0.188,6.49,2.078,8.734C33.817,64.984,36.025,66,38.48,66c5.87,0,11.02-5.755,11.02-12.317 c0-2.912-1.036-5.495-2.917-7.271C45.058,44.971,43.094,44.193,41.009,44.193z"></path><path fill="#1f212b" d="M61.52,67c-6.403,0-12.02-6.217-12.02-13.304c0-3.185,1.146-6.021,3.227-7.986 c1.846-1.743,4.264-2.625,6.803-2.477c5.396,0.308,10.243,5.043,11.272,11.015c0.619,3.592-0.218,7.067-2.296,9.534 C66.758,65.857,64.276,67,61.52,67z M58.99,44.217c-2.086,0-4.051,0.778-5.576,2.22c-1.879,1.774-2.914,4.353-2.914,7.259 C50.5,60.25,55.649,66,61.52,66c2.457,0,4.667-1.016,6.221-2.862c1.889-2.241,2.645-5.42,2.075-8.72 c-0.937-5.435-5.479-9.91-10.343-10.187C59.312,44.222,59.15,44.217,58.99,44.217z"></path><circle cx="44" cy="56" r="1" fill="#1f212b"></circle><circle cx="56" cy="56" r="1" fill="#1f212b"></circle></g></svg>