<svg xmlns="http://www.w3.org/2000/svg" x="0px" y="0px"
width="100" height="100"
viewBox="0 0 100 100"
style=" fill:#000000;"><circle cx="50" cy="50" r="37" fill="#f59173"></circle><path fill="#fed5b3" d="M50,28.5c0,0-19.381,0.5-19.381,21.5C30.619,72,50,72.5,50,72.5S69.381,72,69.381,50 C69.381,29,50,28.5,50,28.5z"></path><path fill="#fff" d="M50,48.01c0.024,6.375-4.79,12.251-10.691,12.483c-5.83,0.229-9.634-5.189-8.655-11.483 c0.887-5.703,5.466-10.191,10.346-10.493C45.928,38.211,49.978,42.245,50,48.01z"></path><path fill="#fff" d="M50,48.01c-0.024,6.375,4.79,12.251,10.691,12.483c5.83,0.229,9.634-5.189,8.655-11.483 c-0.887-5.703-5.466-10.191-10.346-10.493C54.072,38.211,50.022,42.245,50,48.01z"></path><path fill="#444445" d="M34.5,50.5c0-16.5,15.5-22,15.5-22c-13.531,0-24.5,9.85-24.5,22c0,12.15,10.969,22,24.5,22 C50,72.5,34.5,65.167,34.5,50.5z"></path><path fill="#444445" d="M50,28.5c0,0,15.5,9.167,15.5,22c0,16.554-15.5,22-15.5,22c13.531,0,24.5-9.85,24.5-22 C74.5,38.35,63.531,28.5,50,28.5z"></path><g><path fill="#1f212b" d="M50,88c-20.953,0-38-17.047-38-38s17.047-38,38-38s38,17.047,38,38S70.953,88,50,88z M50,14 c-19.851,0-36,16.149-36,36s16.149,36,36,36s36-16.149,36-36S69.851,14,50,14z"></path><path fill="#1f212b" d="M50,73c-13.785,0-25-10.093-25-22.5S36.215,28,50,28c0.243,0,0.451,0.175,0.493,0.415 s-0.096,0.475-0.325,0.556C50.016,29.025,35,34.557,35,50.5c0,14.186,15.062,21.476,15.214,21.548 c0.211,0.1,0.325,0.333,0.274,0.562C50.437,72.838,50.234,73,50,73z M47.485,29.117C35.429,30.247,26,39.405,26,50.5 c0,11.232,9.666,20.48,21.937,21.421C43.767,69.39,34,62.209,34,50.5C34,37.823,43.076,31.459,47.485,29.117z"></path><path fill="#1f212b" d="M38.987,61c-0.703,0-1.41-0.084-2.105-0.251l0.233-0.973c0.719,0.173,1.452,0.246,2.174,0.218 c5.559-0.219,10.235-5.706,10.211-11.982c-0.011-2.804-1.009-5.277-2.81-6.963c-1.54-1.442-3.551-2.17-5.661-2.034 c-1.209,0.075-2.426,0.43-3.616,1.055l-0.465-0.886c1.316-0.691,2.668-1.083,4.019-1.167c2.387-0.147,4.663,0.67,6.406,2.302 c2.004,1.876,3.114,4.607,3.126,7.689c0.026,6.799-5.09,12.746-11.172,12.985C39.215,60.997,39.101,61,38.987,61z"></path><path fill="#1f212b" d="M50,73c-0.244,0-0.452-0.176-0.493-0.416c-0.041-0.24,0.097-0.475,0.327-0.556 C49.986,71.975,65,66.495,65,50.5c0-12.405-15.102-21.479-15.254-21.57c-0.194-0.115-0.287-0.345-0.228-0.562 C49.577,28.151,49.775,28,50,28c13.785,0,25,10.093,25,22.5S63.785,73,50,73z M51.786,29.059C55.761,31.779,66,39.821,66,50.5 c0,12.703-9.053,19.044-13.469,21.381C64.58,70.745,74,61.589,74,50.5C74,39.183,64.188,29.88,51.786,29.059z"></path><path fill="#1f212b" d="M61.02,61c-0.116,0-0.232-0.002-0.348-0.007C54.59,60.753,49.474,54.807,49.5,48.008 c0.012-3.082,1.122-5.812,3.126-7.689c1.743-1.631,4.011-2.446,6.406-2.302c0.832,0.052,1.693,0.231,2.559,0.532l-0.329,0.944 c-0.78-0.271-1.551-0.432-2.292-0.479c-2.107-0.131-4.12,0.592-5.66,2.034c-1.801,1.686-2.799,4.159-2.81,6.963 c-0.024,6.276,4.652,11.763,10.211,11.982c0.878,0.036,1.752-0.078,2.596-0.335l0.291,0.957C62.759,60.871,61.893,61,61.02,61z"></path><path fill="#1f212b" d="M50,79c-15.991,0-29-11.888-29-26.5S34.009,26,50,26s29,11.888,29,26.5S65.991,79,50,79z M50,27 c-15.439,0-28,11.439-28,25.5S34.561,78,50,78s28-11.439,28-25.5S65.439,27,50,27z"></path><path fill="#1f212b" d="M53.5,84c-0.179,0-0.352-0.097-0.441-0.266C53.015,83.652,52,81.683,52,77.5 c0-2.896-1.298-4.022-1.889-4.385c-0.298,0.418-0.92,1.588-1.257,4.374c-0.551,4.551-1.89,5.354-2.153,5.469 c-0.253,0.114-0.548-0.005-0.658-0.258c-0.107-0.246-0.002-0.53,0.235-0.648c0.059-0.038,1.11-0.772,1.583-4.684 c0.517-4.27,1.725-5.193,1.861-5.284l0.209-0.14l0.237,0.085C50.284,72.07,53,73.091,53,77.5c0,3.903,0.934,5.75,0.943,5.768 c0.127,0.245,0.032,0.546-0.211,0.674C53.657,83.981,53.578,84,53.5,84z"></path><path fill="#1f212b" d="M68.5,22.59c-0.095,0-0.191-0.027-0.277-0.084c-0.206-0.137-0.418-0.264-0.631-0.392L67.237,21.9 c-0.235-0.145-0.308-0.453-0.163-0.688c0.145-0.235,0.451-0.31,0.688-0.163l0.342,0.207c0.227,0.136,0.453,0.271,0.672,0.417 c0.23,0.153,0.292,0.463,0.139,0.693C68.82,22.512,68.661,22.59,68.5,22.59z"></path><path fill="#1f212b" d="M31.5,22.59c-0.162,0-0.32-0.078-0.417-0.223c-0.153-0.23-0.09-0.54,0.14-0.693 C36.804,17.962,43.297,16,50,16c2.562,0,5.124,0.29,7.612,0.862c0.27,0.062,0.438,0.33,0.375,0.599 c-0.062,0.27-0.329,0.438-0.599,0.375C54.973,17.282,52.487,17,50,17c-6.505,0-12.807,1.904-18.223,5.506 C31.692,22.563,31.596,22.59,31.5,22.59z"></path><path fill="#1f212b" d="M64.5,20.315c-0.073,0-0.147-0.016-0.217-0.05c-1.044-0.504-2.171-0.965-3.448-1.412 c-0.261-0.091-0.398-0.376-0.307-0.637c0.092-0.26,0.375-0.397,0.637-0.307c1.312,0.459,2.474,0.935,3.552,1.456 c0.249,0.12,0.353,0.419,0.233,0.667C64.864,20.211,64.686,20.315,64.5,20.315z"></path><circle cx="44" cy="49" r="1" fill="#1f212b"></circle><circle cx="55" cy="49" r="1" fill="#1f212b"></circle></g></svg>